<?xml version="1.0" standalone="no"?>
<!DOCTYPE svg PUBLIC "-//W3C//DTD SVG 20010904//EN"
 "http://www.w3.org/TR/2001/REC-SVG-20010904/DTD/svg10.dtd">
<svg version="1.0" xmlns="http://www.w3.org/2000/svg"
 width="1024.000000pt" height="1024.000000pt" viewBox="0 0 1024.000000 1024.000000"
 preserveAspectRatio="xMidYMid meet">
<metadata>
Created by potrace 1.16, written by Peter Selinger 2001-2019
</metadata>
<g transform="translate(0.000000,1024.000000) scale(0.100000,-0.100000)"
fill="#000000" stroke="none">
<path d="M0 5120 l0 -5120 5120 0 5120 0 0 5120 0 5120 -5120 0 -5120 0 0
-5120z m5175 4141 c191 -57 323 -152 419 -302 9 -15 33 -31 54 -37 97 -29 222
-139 307 -271 75 -115 86 -169 49 -242 -10 -20 -11 -35 -3 -60 5 -19 13 -85
16 -147 l6 -113 31 -14 31 -14 -37 5 c-33 6 -38 4 -38 -14 0 -11 -5 -33 -11
-49 -7 -15 -13 -73 -14 -128 -1 -77 -8 -121 -30 -190 -36 -118 -36 -117 5
-127 356 -90 613 -166 944 -282 104 -36 192 -64 195 -61 4 2 2 62 -5 132 -11
120 -14 133 -46 183 -19 30 -43 77 -53 103 -14 36 -26 51 -49 61 -37 15 -424
135 -546 169 -77 21 -87 27 -102 58 -10 19 -18 49 -18 67 0 24 -4 32 -17 32
-10 0 -25 5 -33 10 -11 7 -6 8 16 4 l31 -6 -4 49 c-2 27 2 69 11 96 13 45 13
51 -5 90 -43 95 -12 193 92 293 89 86 275 234 315 250 58 24 127 17 248 -25
144 -50 155 -56 251 -137 146 -124 310 -294 369 -386 31 -48 70 -97 86 -108
39 -27 72 -84 119 -207 22 -54 80 -192 131 -308 167 -381 244 -594 290 -801
20 -87 26 -185 18 -291 0 -10 7 -69 16 -131 25 -176 22 -246 -15 -320 -17 -35
-49 -77 -72 -97 -95 -81 -279 -170 -547 -265 -113 -40 -136 -52 -142 -71 -4
-13 -21 -103 -38 -199 -98 -557 -275 -1148 -500 -1665 -72 -165 -227 -485
-277 -570 l-41 -70 -7 -257 -7 -257 -62 -3 -61 -3 -3 -101 -3 -101 47 -7 c26
-3 60 -6 75 -6 l29 0 0 -229 0 -228 -57 -26 c-112 -50 -269 -60 -373 -23 -32
12 -98 18 -234 22 l-189 5 -101 -99 c-117 -114 -267 -243 -416 -358 -141 -109
-288 -214 -298 -214 -24 0 -465 336 -642 488 l-105 90 -5 -101 c-6 -120 9
-111 -190 -121 -75 -4 -196 -13 -270 -21 -74 -8 -147 -15 -162 -15 l-28 0 0
161 0 161 -22 -6 c-13 -4 -35 -9 -50 -12 l-27 -6 -3 -151 -3 -151 -175 -22
c-96 -12 -238 -31 -314 -42 -77 -12 -143 -19 -148 -16 -4 3 -8 70 -8 150 0
109 -3 144 -12 144 -7 0 -88 -13 -180 -29 -92 -15 -170 -26 -173 -23 -3 3 -5
124 -5 269 0 256 1 263 20 263 17 0 20 7 20 40 l0 41 -42 -25 c-24 -13 -63
-30 -88 -36 -73 -20 -77 -23 -40 -29 l35 -6 3 -264 c1 -146 -2 -269 -7 -274
-9 -9 -56 -20 -425 -97 -146 -30 -252 -48 -257 -43 -5 5 -8 140 -7 303 l3 294
25 6 25 6 0 354 0 354 -25 6 -25 6 0 279 0 280 342 3 c323 2 346 1 403 -18 67
-23 80 -20 80 15 0 24 1 24 114 27 l115 3 -85 69 c-96 79 -125 113 -160 190
-14 30 -52 82 -87 118 -108 113 -149 219 -127 338 26 144 146 438 267 656 l66
119 -51 210 c-139 571 -206 1091 -214 1660 l-3 190 50 27 c221 121 855 345
1230 433 61 14 115 28 121 30 8 2 6 26 -7 82 -10 43 -19 90 -19 104 0 22 -9
31 -47 50 -35 17 -53 35 -67 63 l-19 40 33 130 c59 229 113 375 181 488 l22
37 -42 46 c-54 58 -66 89 -52 136 17 56 50 79 152 105 106 28 197 71 365 174
216 133 365 187 538 197 l99 6 43 45 43 45 103 -6 c57 -3 134 -15 173 -26z
m2098 -5766 c32 -8 79 -26 106 -39 51 -26 61 -25 61 6 0 17 19 18 453 16 l452
-3 0 -290 0 -290 -62 -3 c-35 -2 -63 -5 -63 -7 0 -3 15 -24 33 -48 84 -110
107 -221 107 -512 0 -322 -28 -447 -122 -551 -81 -88 -171 -124 -313 -124
-171 0 -342 77 -420 190 -15 22 -32 40 -37 40 -5 0 -25 -12 -43 -26 -93 -71
-302 -89 -449 -40 -169 57 -263 161 -318 353 -22 75 -23 93 -23 453 0 444 7
506 79 648 64 127 141 192 269 227 69 18 219 19 290 0z"/>
<path d="M4940 9173 c0 -4 23 -21 51 -38 27 -16 60 -41 72 -54 l22 -24 -35 7
c-192 37 -367 34 -500 -9 -105 -34 -226 -94 -370 -184 -119 -74 -221 -122
-339 -156 l-73 -22 31 -36 c18 -20 53 -43 79 -53 26 -10 48 -19 50 -20 2 -1
-20 -31 -48 -65 -73 -91 -143 -241 -185 -392 -36 -132 -53 -227 -41 -227 16 0
63 30 85 54 14 14 27 26 30 26 3 0 5 -53 3 -117 -4 -142 23 -293 69 -390 28
-59 47 -80 46 -50 0 6 1 30 2 52 l2 40 30 -55 c16 -30 63 -98 105 -150 106
-134 154 -246 154 -355 0 -19 4 -35 9 -35 10 0 51 95 51 118 0 26 25 -4 59
-73 l30 -59 -31 -26 c-29 -24 -31 -31 -39 -120 -7 -84 -20 -162 -35 -212 -3
-10 -21 -19 -46 -23 -23 -4 -72 -18 -110 -31 l-68 -23 -43 19 c-60 28 -122 24
-278 -14 -94 -23 -162 -47 -218 -76 -212 -111 -391 -368 -452 -649 -6 -28 -26
-77 -45 -109 -37 -60 -36 -55 -22 -187 1 -11 -68 -135 -157 -280 -302 -496
-489 -909 -471 -1043 8 -62 29 -95 115 -186 47 -48 83 -96 90 -118 19 -59 64
-111 153 -180 183 -142 360 -248 665 -400 l203 -100 182 3 c101 1 201 2 223 1
22 0 64 6 94 15 68 19 150 13 216 -16 34 -15 51 -18 55 -10 5 7 25 2 64 -16
l56 -27 31 20 30 19 -23 15 c-13 8 -46 27 -75 41 -50 26 -51 27 -43 60 10 48
18 57 44 57 22 0 102 -51 174 -110 24 -20 40 -25 63 -22 l30 4 -28 30 c-34 36
-146 119 -190 142 -37 18 -40 33 -18 77 15 29 16 29 50 15 82 -35 220 -152
261 -222 23 -38 30 -44 60 -44 19 0 34 4 34 9 0 6 -20 39 -44 75 l-45 65 37
-6 c31 -4 190 -35 257 -50 16 -3 24 4 36 29 14 30 13 52 -12 275 -14 133 -36
309 -49 390 -21 142 -24 150 -66 213 -72 108 -114 226 -114 322 0 90 30 66 45
-37 10 -71 49 -169 100 -250 24 -39 49 -84 54 -99 10 -23 48 -301 82 -581 17
-149 13 -142 61 -101 61 53 136 78 246 84 l92 4 0 183 c0 101 7 270 16 376 13
165 14 225 4 396 -7 112 -10 210 -6 218 3 8 12 15 19 15 11 0 17 -35 27 -150
13 -152 10 -347 -10 -560 -5 -58 -9 -191 -10 -297 l0 -191 105 -7 c57 -4 110
-5 118 -2 10 4 16 71 25 282 7 152 18 302 23 333 6 31 31 100 55 153 25 55 53
137 64 190 24 114 38 157 52 165 17 11 3 -127 -22 -220 -11 -43 -36 -108 -54
-145 -19 -36 -39 -84 -45 -106 -6 -22 -18 -161 -26 -310 -8 -148 -16 -286 -17
-305 l-3 -35 74 -5 74 -5 -7 73 c-3 39 -2 72 3 72 5 0 17 -33 26 -72 20 -79
26 -88 68 -88 25 0 27 -3 27 -40 l0 -40 56 0 56 0 -7 32 c-17 83 -29 113 -53
138 -15 15 -33 29 -40 31 -7 2 -31 74 -53 159 l-41 155 11 125 c5 69 21 184
35 255 14 72 30 187 37 257 l12 126 59 64 c70 74 121 155 148 234 59 171 22
395 -94 579 l-45 70 102 7 c56 3 187 11 291 18 212 13 454 45 628 85 334 74
763 250 869 356 66 65 70 106 37 339 -6 41 -11 136 -12 210 -2 116 -7 152 -34
251 -45 168 -107 333 -256 684 -73 171 -143 337 -156 370 -27 70 -62 121 -89
130 -11 3 -36 35 -56 71 -40 71 -141 201 -184 236 -15 13 -85 74 -155 135
-110 97 -137 116 -189 132 -34 10 -86 28 -115 40 -95 38 -125 28 -252 -77 -91
-77 -201 -185 -216 -214 -23 -45 -17 -82 21 -133 l35 -46 -25 -33 c-52 -68
-42 -132 31 -196 52 -45 100 -63 149 -57 30 4 68 -4 158 -34 96 -33 128 -40
180 -37 55 2 69 -1 110 -27 26 -17 47 -36 47 -43 0 -51 36 -158 65 -197 32
-41 35 -51 49 -186 20 -181 20 -258 0 -320 -14 -43 -15 -63 -6 -130 6 -43 22
-100 35 -126 17 -33 26 -74 30 -128 4 -44 10 -97 13 -117 l6 -37 -133 5 c-93
4 -195 -1 -334 -14 l-200 -20 -20 23 c-31 36 -81 56 -133 54 -35 -2 -72 8
-147 39 -248 102 -515 93 -707 -24 -32 -19 -80 -41 -106 -49 -27 -8 -61 -24
-75 -35 -18 -15 -40 -20 -81 -20 l-56 0 0 48 c-1 26 -7 65 -15 87 -13 36 -13
41 2 53 9 6 22 12 29 12 25 0 129 108 201 210 132 185 199 343 210 495 5 69
10 86 38 125 57 80 111 245 103 320 -2 27 -8 35 -28 40 -18 5 -24 12 -21 26 1
10 6 57 10 104 l7 85 19 -62 c10 -35 22 -63 26 -63 14 0 29 100 29 189 0 98
-25 211 -65 299 -14 30 -23 57 -20 60 3 3 26 -9 50 -26 25 -18 48 -32 50 -32
12 0 -61 129 -102 183 -53 69 -161 147 -235 171 -48 15 -57 22 -76 60 -57 119
-208 221 -385 260 -85 19 -177 29 -177 19z m302 -134 c84 -42 161 -118 199
-194 27 -55 35 -64 72 -75 23 -7 65 -24 92 -37 51 -26 139 -92 132 -99 -2 -2
-20 3 -40 11 -20 8 -49 15 -65 15 l-28 0 48 -52 c86 -91 148 -217 163 -333 l6
-50 -25 44 c-27 45 -126 164 -132 159 -2 -2 9 -28 24 -58 22 -45 27 -70 30
-145 l2 -90 -28 75 c-27 69 -106 215 -137 250 -7 8 -15 48 -17 90 -2 49 -9 83
-20 99 -16 23 -17 21 -17 -55 0 -90 -19 -160 -66 -254 -31 -61 -143 -215 -151
-208 -2 2 8 37 22 77 31 89 54 206 54 274 l0 52 -37 -64 c-50 -83 -127 -167
-211 -230 -66 -48 -262 -151 -291 -151 -7 0 10 25 38 55 56 62 175 235 167
243 -3 3 -31 -17 -62 -44 -122 -107 -319 -253 -432 -322 -66 -39 -122 -72
-126 -72 -11 0 22 57 88 154 87 126 87 127 21 71 -108 -89 -101 -85 -79 -47
38 67 173 238 228 291 32 29 55 55 53 57 -7 7 -120 -76 -170 -124 -71 -69
-138 -156 -192 -252 -60 -106 -105 -173 -112 -166 -3 2 1 31 7 63 20 97 140
310 244 431 25 30 46 56 46 58 0 10 -62 -39 -109 -86 -27 -27 -70 -76 -96
-109 -27 -34 -50 -59 -52 -57 -6 6 16 131 32 176 27 75 22 77 -64 14 -34 -25
-65 -44 -67 -42 -2 2 13 33 34 68 48 82 187 229 276 291 38 27 66 49 62 49 -5
0 -45 -19 -89 -42 -194 -100 -362 -335 -383 -535 l-6 -58 27 40 c28 40 125
145 135 145 3 0 2 -59 -2 -130 -6 -122 -9 -135 -42 -204 -35 -73 -113 -182
-123 -173 -3 3 2 47 11 98 25 142 13 133 -52 -46 -22 -60 -43 -132 -47 -158
-6 -35 -11 -45 -18 -38 -7 7 -13 76 -16 179 l-4 167 -17 -51 c-17 -49 -32
-127 -48 -249 l-8 -60 -13 74 c-8 46 -12 120 -9 195 4 106 9 134 40 224 19 56
32 102 27 102 -4 0 -37 -33 -74 -72 -74 -80 -75 -77 -17 60 47 114 120 222
213 317 l78 80 -87 -3 -87 -3 125 63 c69 35 195 101 280 145 218 115 312 145
466 151 138 5 235 -10 367 -59 45 -16 85 -29 89 -29 13 0 -8 34 -58 95 -24 30
-42 55 -39 55 3 0 33 -14 67 -31z m1924 -641 c106 -108 224 -245 224 -260 0
-10 -104 61 -202 137 -48 37 -63 57 -97 131 -23 48 -41 88 -41 90 0 15 28 -9
116 -98z m-598 39 l22 -23 -34 -33 c-19 -19 -40 -47 -47 -62 -6 -16 -15 -29
-20 -29 -15 0 -32 47 -26 72 7 24 63 98 76 98 4 0 17 -10 29 -23z m112 -115
c0 -9 -16 -42 -35 -72 -19 -30 -35 -60 -35 -67 0 -7 -5 -13 -12 -13 -19 0 -58
42 -58 62 0 23 24 72 57 116 l24 32 30 -20 c16 -12 29 -29 29 -38z m-1093 -49
c30 -69 73 -191 73 -210 0 -9 -17 -13 -57 -13 -63 0 -131 -26 -171 -63 -26
-24 -56 -76 -49 -84 3 -2 49 18 102 46 120 64 185 67 185 10 0 -13 -14 -17
-83 -21 -89 -6 -145 -25 -228 -79 -58 -37 -103 -38 -155 -3 -94 64 -207 95
-379 103 l-130 7 40 19 c86 40 205 20 373 -63 l62 -31 -24 47 c-32 63 -55 82
-132 107 l-65 21 93 46 c57 28 117 69 155 103 l63 56 -25 -66 c-14 -36 -41
-97 -61 -136 -19 -39 -34 -75 -32 -80 2 -5 32 8 68 28 91 53 258 221 295 296
26 55 28 57 42 37 8 -11 26 -46 40 -77z m1192 -23 l24 -21 -26 -52 c-14 -29
-29 -64 -33 -79 -8 -35 -18 -35 -55 1 -34 35 -36 60 -8 120 35 78 40 80 98 31z
m115 -94 c34 -29 37 -35 27 -55 -10 -17 -9 -22 3 -27 8 -3 23 -1 35 5 27 15
31 14 31 -9 0 -29 -26 -76 -46 -84 -20 -8 -131 41 -139 61 -11 31 24 144 45
143 3 -1 22 -16 44 -34z m-331 -52 c31 -25 57 -52 57 -59 0 -7 -14 -16 -30
-20 -23 -5 -41 0 -75 19 -46 27 -61 53 -50 86 10 31 35 24 98 -26z m-1883
-143 c0 -10 -121 -54 -128 -46 -11 11 23 35 61 44 57 12 67 13 67 2z m2866
-15 c4 -17 -3 -39 -20 -69 -14 -24 -26 -53 -26 -65 0 -12 29 -102 64 -199 35
-98 68 -200 74 -228 7 -29 11 -119 9 -215 -2 -160 -1 -167 25 -222 17 -36 57
-88 109 -142 98 -103 139 -131 179 -123 20 4 30 2 34 -9 11 -30 6 -45 -21 -55
-50 -19 -101 12 -211 125 -158 164 -193 261 -170 469 l12 108 -77 233 c-42
129 -77 249 -77 267 0 31 65 149 82 149 4 0 10 -11 14 -24z m-2574 -57 c113
-25 172 -50 188 -79 23 -43 -13 -175 -63 -229 -66 -72 -217 -94 -314 -46 -77
39 -133 136 -133 233 0 29 2 33 15 22 8 -6 26 -32 40 -56 14 -24 38 -50 54
-58 39 -21 125 -31 147 -17 11 6 13 11 6 11 -8 0 -4 12 12 33 18 24 26 46 26
75 0 32 4 42 16 42 26 0 84 -65 84 -94 0 -14 5 -26 10 -26 32 0 -11 112 -58
152 -53 44 -108 45 -237 4 -60 -20 -111 -36 -112 -36 -2 0 -3 13 -3 30 0 22 7
33 28 44 41 23 183 20 294 -5z m706 -24 c5 -40 -11 -47 -59 -26 -90 41 -179
20 -220 -52 -20 -36 -24 -39 -27 -20 -5 35 16 63 64 84 59 26 117 38 184 36
47 -2 55 -5 58 -22z m56 -1 c23 -9 20 -24 -4 -24 -11 0 -20 7 -20 15 0 17 2
18 24 9z m1667 -79 c4 -22 12 -52 18 -67 6 -17 7 -30 1 -33 -16 -10 -176 -29
-192 -23 -8 3 -20 26 -27 49 -7 24 -14 51 -17 60 -4 13 6 18 45 23 27 4 67 13
88 21 60 22 76 16 84 -30z m-2999 -12 c-4 -21 -7 -66 -7 -100 0 -35 -2 -63 -5
-63 -8 0 -30 63 -45 128 -12 51 -12 54 9 62 46 19 55 13 48 -27z m523 6 c0
-15 -7 -25 -18 -27 -22 -4 -33 24 -17 43 18 21 35 13 35 -16z m605 12 c0 -10
-7 -24 -15 -31 -12 -10 -16 -9 -21 4 -3 9 -4 23 0 31 8 21 36 19 36 -4z m52
-8 c41 -37 2 -123 -57 -123 l-26 0 19 28 c11 15 23 46 27 70 8 47 11 49 37 25z
m194 -16 c-19 -94 -30 -128 -48 -158 l-22 -34 -7 25 c-4 14 -7 48 -8 77 -1 46
3 56 34 88 36 38 58 39 51 2z m-1006 1 c0 -13 3 -34 7 -48 6 -25 6 -25 -15 -6
-29 25 -29 76 0 76 4 0 8 -10 8 -22z m2914 -175 c115 -230 215 -493 276 -723
28 -107 29 -116 13 -127 -22 -17 -43 -16 -43 0 0 57 -161 550 -247 757 -38 90
-103 267 -103 277 0 18 25 -27 104 -184z m-3450 166 c18 -9 41 -44 80 -124 41
-83 70 -127 111 -169 71 -72 92 -75 63 -8 -17 37 -22 74 -26 173 l-5 126 33 6
c72 15 77 12 99 -56 30 -89 79 -166 126 -199 81 -56 250 -62 351 -13 66 32
103 76 144 171 35 80 56 95 94 71 19 -13 24 -27 29 -77 4 -47 14 -76 41 -120
20 -32 36 -64 36 -72 0 -7 -18 -30 -40 -51 -37 -34 -52 -67 -31 -67 4 0 29 18
55 41 36 32 46 47 46 71 0 28 2 30 28 22 15 -5 64 -9 110 -9 l82 0 -6 -50
c-15 -136 -77 -276 -199 -450 -125 -180 -157 -205 -258 -205 -124 0 -285 62
-460 176 -159 104 -249 203 -307 340 -11 24 -21 44 -24 44 -2 0 -17 -7 -32
-15 -37 -19 -50 -19 -101 4 -109 50 -193 174 -193 286 1 127 67 193 154 154z
m1404 -231 c-21 -13 -137 -9 -166 6 -40 21 -69 56 -80 98 -10 36 -9 37 10 25
16 -9 22 -9 25 0 3 9 10 9 28 -3 42 -28 148 8 178 59 10 19 12 7 15 -77 2 -73
-1 -102 -10 -108z m-1080 -533 c168 -225 346 -384 476 -425 35 -11 38 -14 32
-42 -3 -17 -6 -77 -6 -133 0 -79 -3 -104 -14 -108 -28 -11 -48 22 -96 158 -35
97 -58 147 -77 166 -15 15 -95 56 -176 92 -81 36 -168 77 -193 92 l-44 26 0
72 c0 40 -3 110 -6 157 -5 57 -3 82 4 75 5 -5 50 -64 100 -130z m2873 45 l96
0 21 -74 c12 -41 22 -77 22 -79 0 -3 -16 -11 -37 -18 -61 -20 -214 3 -226 35
-3 7 -8 43 -12 81 l-8 68 24 -6 c13 -4 67 -7 120 -7z m339 -59 c-1 -13 -4 -12
-15 3 -8 11 -15 27 -15 35 1 13 4 12 15 -3 8 -11 15 -27 15 -35z m-3402 -53
c-2 -6 -10 -14 -16 -16 -7 -2 -10 2 -6 12 7 18 28 22 22 4z m32 -149 c63 -43
157 -89 284 -139 146 -58 175 -86 211 -205 42 -138 54 -163 90 -185 18 -11 49
-20 68 -20 51 0 63 25 71 143 6 102 30 180 67 213 24 22 24 9 0 -64 -11 -31
-22 -104 -26 -162 -8 -109 -14 -130 -47 -167 l-20 -22 103 -163 c56 -90 137
-215 179 -279 101 -152 186 -321 211 -416 29 -112 35 -266 15 -380 -18 -107
-42 -173 -62 -173 -19 0 -18 10 11 125 31 119 34 234 10 350 -35 166 -97 289
-328 647 -79 123 -152 238 -161 256 -11 22 -35 40 -81 62 -36 17 -72 42 -81
55 -9 13 -31 69 -50 125 -19 55 -40 110 -46 121 -16 26 -112 80 -202 113 -152
57 -276 139 -276 182 0 20 9 18 60 -17z m-23 -96 c11 -28 -29 -184 -43 -170
-9 8 18 187 28 187 5 0 12 -8 15 -17z m3158 -69 c64 -4 135 -2 169 5 l59 11
59 -45 c60 -45 76 -52 133 -57 l29 -3 22 -125 c32 -175 31 -192 -10 -233 -49
-49 -106 -80 -298 -158 -266 -107 -525 -183 -673 -195 l-80 -6 -17 47 c-30 81
-60 326 -56 450 3 61 10 122 16 138 l12 27 217 0 218 0 77 -75 c81 -79 130
-104 85 -42 -46 62 -98 156 -117 213 -11 31 -20 59 -20 62 0 2 15 1 33 -2 17
-4 82 -9 142 -12z m-1375 -26 c69 -13 210 -66 210 -79 0 -19 -30 -21 -77 -5
-53 17 -133 31 -233 42 l-65 6 19 -20 c18 -21 18 -21 -8 -28 -42 -10 -118 2
-132 21 -12 16 -17 16 -91 0 -43 -10 -91 -24 -106 -32 -22 -11 -32 -12 -43 -2
-13 10 -12 14 1 29 28 31 135 72 209 80 82 9 236 3 316 -12z m358 -104 c6 -39
-197 -212 -323 -277 -78 -40 -199 -48 -326 -22 -132 26 -168 46 -228 124 -28
37 -71 87 -96 110 -51 48 -54 57 -23 67 20 6 37 -8 123 -98 55 -58 109 -110
121 -116 11 -6 65 -19 119 -28 113 -19 215 -15 267 12 69 35 176 116 243 184
55 55 75 70 95 68 17 -2 26 -10 28 -24z m-2204 -64 c79 -73 208 -235 204 -257
-4 -22 -219 -132 -260 -132 -38 -1 -44 17 -11 30 15 6 70 31 121 56 77 37 92
48 92 67 0 25 -122 176 -191 236 -35 31 -42 50 -18 50 4 0 32 -23 63 -50z m4
-100 c56 -61 102 -116 102 -123 0 -9 -100 -62 -180 -95 -4 -1 -15 19 -25 45
-20 54 -64 137 -107 200 -15 23 -28 46 -28 52 0 10 65 28 110 30 20 1 47 -22
128 -109z m1023 43 c60 -138 58 -137 202 -154 104 -13 128 -22 111 -39 -8 -8
-49 -6 -145 7 -151 21 -132 5 -188 148 -18 44 -35 86 -38 93 -3 7 2 12 12 12
11 0 26 -23 46 -67z m1329 57 c0 -5 -14 -10 -31 -10 -17 0 -28 4 -24 10 3 6
17 10 31 10 13 0 24 -4 24 -10z m-2716 -24 c72 -43 176 -209 176 -282 0 -39
-72 -252 -108 -317 -38 -70 -97 -119 -214 -178 -218 -110 -446 -162 -608 -139
-47 6 -104 20 -127 30 -37 16 -43 23 -43 49 0 16 4 32 8 35 5 3 33 -4 63 -16
44 -17 75 -21 169 -22 127 0 220 19 385 79 244 88 303 150 380 398 25 79 26
92 15 131 -17 61 -81 156 -142 210 -49 45 -49 46 -22 46 15 0 46 -11 68 -24z
m1502 -8 c26 -18 68 -57 93 -87 l46 -54 -68 7 c-103 10 -114 17 -148 91 -16
35 -29 67 -29 70 0 17 65 0 106 -27z m585 -15 c18 -50 -43 -93 -82 -57 -26 24
-24 49 7 73 29 23 63 16 75 -16z m-2200 1 l41 -17 -89 -22 c-106 -27 -185 -60
-209 -86 -18 -19 -17 -20 22 -13 48 7 70 -11 60 -51 -17 -68 -172 -175 -215
-148 -25 16 -24 54 3 106 14 26 21 47 15 47 -20 0 -132 -116 -179 -185 -62
-92 -101 -171 -140 -283 -18 -52 -37 -89 -42 -86 -25 16 30 222 93 346 64 126
197 268 309 327 64 34 209 80 257 80 18 1 51 -6 74 -15z m2824 -84 c0 -17 -37
-24 -165 -34 -80 -6 -84 -5 -65 10 41 33 79 44 155 41 58 -1 75 -5 75 -17z
m-1709 -267 c41 -47 42 -47 113 -51 l71 -4 50 -81 c28 -45 50 -85 50 -91 0
-12 -186 -1 -222 13 -16 6 -56 37 -91 69 -90 84 -102 90 -218 113 -57 11 -135
29 -174 40 l-69 21 44 22 c31 14 51 32 63 57 l17 36 163 -48 c159 -48 163 -49
203 -96z m552 92 c3 -2 -7 -22 -21 -42 -20 -30 -28 -56 -33 -117 -6 -72 -10
-83 -38 -108 -17 -15 -36 -28 -43 -28 -11 0 -81 111 -96 152 -3 9 2 23 13 33
11 10 22 32 26 50 3 18 14 46 24 63 l18 30 73 -14 c39 -7 74 -16 77 -19z m322
-155 c31 -52 56 -96 55 -98 -2 -2 -46 41 -99 95 -78 81 -96 104 -96 129 0 17
3 34 8 38 11 12 69 -59 132 -164z m-1630 105 c0 -13 -4 -27 -10 -30 -6 -4 -10
8 -10 30 0 22 4 34 10 30 6 -3 10 -17 10 -30z m64 -86 l52 0 48 -66 c26 -36
50 -72 53 -80 3 -7 -13 -59 -35 -116 -22 -56 -44 -115 -47 -130 -10 -37 -26
-30 -40 19 l-11 39 -7 -67 c-18 -165 -80 -313 -177 -421 -75 -83 -163 -109
-216 -64 -35 30 -25 47 24 40 107 -14 219 117 274 319 28 104 30 302 5 416
-24 102 -23 125 4 117 12 -4 45 -7 73 -6z m-444 -59 c26 -26 25 -51 -1 -84
-23 -30 -54 -33 -81 -9 -37 34 -8 113 42 113 11 0 29 -9 40 -20z m2071 -117
c132 -137 262 -313 294 -397 17 -45 17 -47 -8 -139 -14 -50 -33 -143 -42 -205
-9 -63 -23 -134 -30 -159 -13 -43 -63 -129 -70 -121 -2 2 5 38 16 80 10 42 28
135 39 205 10 70 26 157 34 193 25 105 21 134 -25 207 -22 36 -87 128 -145
204 -57 77 -108 148 -114 159 -18 34 4 22 51 -27z m-1404 -359 c296 -182 365
-254 424 -444 20 -63 24 -96 24 -213 l0 -139 54 7 c30 4 88 16 129 26 41 11
76 18 79 16 6 -7 -89 -45 -150 -61 -30 -8 -77 -16 -103 -17 l-49 -3 3 119 c5
145 -9 227 -52 320 -64 138 -139 207 -393 365 -72 45 -138 89 -145 97 -30 37
59 1 179 -73z m-1103 -176 c-72 -108 -90 -128 -92 -109 -4 28 55 151 98 203
25 31 64 51 79 41 2 -1 -37 -62 -85 -135z m-313 80 c-16 -38 -77 -96 -88 -84
-6 6 47 110 61 118 6 4 19 8 28 8 16 0 16 -3 -1 -42z m-15 -312 c111 -53 181
-105 287 -214 l78 -80 -31 -50 c-28 -46 -97 -129 -226 -271 l-49 -53 -62 21
c-41 14 -87 21 -135 21 -101 0 -118 -15 -35 -29 36 -6 82 -18 104 -27 41 -17
153 -93 153 -103 0 -4 -22 -14 -50 -24 -27 -10 -64 -30 -81 -45 -31 -26 -37
-27 -118 -24 -112 5 -154 -12 -225 -89 -30 -32 -63 -72 -73 -89 -9 -16 -20
-30 -24 -30 -15 0 -122 126 -139 163 -23 50 -15 91 49 249 92 231 211 463 336
654 l53 82 47 -9 c26 -5 89 -29 141 -53z m824 -216 c18 -36 93 -164 166 -285
73 -122 152 -260 175 -309 42 -87 42 -89 41 -195 -1 -124 -15 -216 -44 -283
-19 -44 -27 -51 -140 -114 l-121 -66 -74 38 c-45 24 -114 75 -179 133 -85 75
-119 115 -179 206 -46 70 -120 161 -195 241 -66 71 -119 132 -118 136 2 4 50
59 106 123 131 145 263 322 371 493 l84 132 37 -93 c21 -51 52 -121 70 -157z
m571 39 c75 -74 168 -127 317 -179 51 -18 91 -38 89 -44 -2 -6 -24 -12 -49
-14 -53 -4 -185 41 -258 88 -101 65 -205 206 -225 305 -5 22 3 14 27 -30 18
-33 63 -90 99 -126z m10 -414 l166 -84 41 -113 c47 -128 76 -227 69 -234 -2
-2 -51 16 -108 41 -92 40 -111 52 -169 114 -36 37 -79 76 -97 85 -24 12 -55
55 -132 185 -56 93 -101 171 -101 175 0 3 37 -14 83 -39 45 -25 157 -84 248
-130z m-1413 -384 c140 -56 202 -107 269 -223 49 -85 114 -149 263 -260 47
-35 86 -71 88 -81 3 -17 0 -17 -40 4 -63 32 -205 130 -262 180 -26 23 -72 79
-101 123 -69 106 -113 147 -210 193 -109 51 -183 57 -242 16 -55 -37 -130
-134 -144 -186 -10 -39 -12 -40 -25 -22 -20 27 -17 64 9 112 28 53 90 128 124
150 54 35 174 33 271 -6z m307 -28 c35 -38 42 -70 19 -88 -11 -8 -24 -15 -29
-15 -6 0 -40 29 -75 65 l-64 65 61 0 c55 0 65 -3 88 -27z m1185 -248 c204 -86
247 -129 299 -299 25 -80 25 -86 8 -86 -7 0 -20 22 -29 48 -23 63 -86 159
-130 198 -69 61 -196 93 -300 76 -32 -5 -60 -7 -62 -5 -2 3 0 17 4 31 5 15 14
46 20 69 l10 41 58 -22 c31 -13 86 -36 122 -51z m-1733 -63 c105 -78 332 -210
744 -431 l97 -52 10 61 c12 65 56 156 101 211 26 31 30 33 56 21 26 -12 26
-14 11 -35 -64 -91 -106 -198 -106 -274 0 -18 -4 -33 -10 -33 -33 0 -443 199
-595 288 -177 104 -405 269 -405 293 0 18 19 8 97 -49z m1788 -96 c56 -26 89
-58 134 -130 52 -84 36 -99 -45 -43 -78 54 -116 71 -169 77 l-50 5 -3 44 c-2
24 -1 50 2 57 8 22 75 17 131 -10z m-445 -116 c-43 -85 -70 -173 -70 -227 0
-18 -4 -33 -9 -33 -5 0 -16 -3 -25 -6 -29 -11 -19 72 19 166 19 47 35 89 35
93 0 5 -18 -5 -39 -22 -39 -31 -129 -76 -137 -69 -10 11 80 82 161 128 50 27
93 50 98 50 4 0 -11 -36 -33 -80z"/>
<path d="M5090 8820 c-116 -12 -243 -68 -326 -143 l-49 -45 60 29 c86 42 234
88 323 100 43 6 123 8 182 5 96 -6 103 -5 80 8 -67 41 -167 57 -270 46z"/>
<path d="M5335 8699 c-48 -25 -145 -117 -186 -176 -17 -24 -27 -43 -24 -43 8
0 275 229 275 236 0 10 -28 3 -65 -17z"/>
<path d="M4153 7695 c-26 -18 -38 -62 -22 -81 17 -21 34 -17 47 11 13 28 34
32 52 10 10 -12 11 -24 2 -51 -10 -33 -9 -38 15 -60 20 -19 24 -27 15 -36 -7
-7 -12 -18 -12 -24 0 -21 51 -74 71 -74 26 0 24 28 -6 72 -21 31 -22 38 -10
48 24 20 17 58 -21 116 -55 82 -87 99 -131 69z"/>
<path d="M5270 7418 c-19 -5 -39 -14 -45 -20 -16 -17 57 0 75 17 8 8 12 15 10
14 -3 0 -21 -5 -40 -11z"/>
<path d="M4892 7267 c-22 -23 -32 -51 -11 -30 9 9 28 -5 78 -56 91 -93 160
-126 263 -126 97 0 119 15 171 115 20 40 37 73 37 74 0 1 -78 0 -172 -2 -180
-4 -297 9 -323 34 -18 18 -18 18 -43 -9z m287 -67 c63 -5 125 -7 138 -4 13 4
23 4 23 1 0 -19 -34 -78 -49 -87 -52 -28 -179 2 -260 60 -52 38 -53 54 -3 46
20 -3 88 -11 151 -16z"/>
<path d="M5176 6969 c20 -22 80 -25 107 -5 9 7 17 15 17 17 0 2 -32 5 -70 5
-68 1 -70 1 -54 -17z"/>
<path d="M5975 6360 c-4 -7 -3 -16 3 -22 14 -14 45 -2 40 15 -6 16 -34 21 -43
7z"/>
<path d="M3757 5904 c-4 -4 -7 -18 -7 -31 0 -20 5 -24 23 -21 16 2 22 10 22
28 0 24 -23 39 -38 24z"/>
<path d="M3662 4693 c-89 -125 -198 -260 -270 -335 l-36 -38 86 -87 c52 -53
115 -134 160 -204 81 -124 200 -245 302 -305 l52 -31 75 43 c41 24 78 45 83
47 15 5 35 139 36 240 0 94 -1 100 -40 178 -23 44 -93 166 -156 271 -64 104
-135 226 -159 270 l-42 79 -91 -128z"/>
<path d="M5835 7403 c-17 -125 -67 -276 -127 -383 -60 -106 -154 -235 -218
-301 -61 -62 -63 -65 -30 -52 19 8 71 35 115 58 134 73 211 90 405 89 179 0
251 -14 382 -70 35 -15 78 -26 97 -25 50 2 135 -25 170 -54 l30 -26 152 16
c83 8 194 15 245 15 l94 0 0 38 c0 20 -11 60 -24 88 -25 53 -46 161 -46 234 0
38 -3 42 -37 57 -98 42 -406 149 -568 199 -146 44 -604 164 -628 164 -3 0 -9
-21 -12 -47z"/>
<path d="M3555 7380 c-359 -91 -783 -236 -1079 -370 l-69 -31 6 -217 c13 -473
73 -940 183 -1422 20 -85 39 -159 44 -163 4 -5 47 54 96 130 l88 138 -2 62
c-4 74 11 135 44 186 14 21 35 79 48 130 61 239 207 472 377 603 174 133 544
230 687 180 36 -13 45 -13 95 6 31 11 58 26 61 34 3 7 8 46 12 87 6 72 6 74
-24 103 -28 28 -52 86 -52 126 0 9 -11 52 -25 95 -31 99 -121 218 -180 239
-40 13 -111 76 -121 106 -7 24 -15 23 -189 -22z"/>
<path d="M7214 5624 c-28 -7 -129 -27 -225 -43 -157 -27 -257 -37 -530 -57
l-86 -6 24 -66 c104 -285 59 -546 -132 -772 -30 -35 -55 -71 -55 -80 0 -45
-24 -214 -49 -355 -47 -257 -47 -280 -10 -425 29 -111 37 -129 70 -164 44 -44
74 -115 84 -199 l7 -57 69 0 69 0 0 -102 c0 -121 -7 -127 109 87 317 589 588
1380 706 2060 14 83 28 160 30 173 6 26 -5 27 -81 6z"/>
<path d="M5373 3360 c-58 -12 -95 -33 -131 -74 -37 -43 -53 -96 -58 -196 l-3
-75 -31 -3 -30 -3 0 -100 0 -99 30 0 30 0 0 -239 c0 -228 -1 -240 -19 -246
-22 -7 -35 -76 -29 -155 l3 -45 175 -6 c96 -3 178 -4 183 -2 4 2 7 48 7 102
l0 99 -30 6 -30 6 0 240 0 240 60 0 60 0 0 100 0 100 -55 0 c-50 0 -55 2 -61
25 -3 14 -3 41 0 60 9 46 43 68 96 63 l40 -4 0 97 0 97 -37 6 c-85 12 -130 14
-170 6z"/>
<path d="M5630 3225 l0 -125 130 0 131 0 -3 123 -3 122 -127 3 -128 3 0 -126z"/>
<path d="M2590 3210 l0 -130 125 0 125 0 0 130 0 130 -125 0 -125 0 0 -130z"/>
<path d="M1762 3198 c3 -120 5 -131 22 -134 10 -1 23 -9 27 -16 11 -16 12
-969 1 -984 -4 -6 -17 -14 -29 -18 -22 -7 -23 -11 -23 -142 0 -110 3 -134 14
-134 12 0 266 53 364 75 22 5 23 8 20 128 l-3 122 -30 5 -30 5 -3 156 -2 156
87 12 c202 25 293 118 322 325 32 227 -10 432 -103 512 -67 57 -108 64 -388
64 l-249 0 3 -132z m422 -139 c38 -18 51 -62 51 -179 -1 -114 -11 -150 -55
-181 -14 -11 -40 -22 -57 -25 l-33 -6 0 201 0 201 35 0 c19 0 45 -5 59 -11z"/>
<path d="M3000 3219 l0 -69 132 0 c72 0 129 2 127 4 -3 3 -62 34 -132 69
l-127 65 0 -69z"/>
<path d="M6068 3168 c-5 -98 -21 -138 -65 -158 l-33 -15 0 -96 0 -96 30 -6 30
-6 0 -218 c0 -120 5 -249 10 -288 15 -98 52 -160 120 -198 47 -27 62 -31 139
-31 47 -1 98 2 114 7 l27 7 0 106 0 106 -27 -8 c-45 -12 -74 -7 -97 15 -20 21
-21 32 -24 261 l-3 240 69 0 69 0 2 93 c1 50 -2 97 -7 104 -4 6 -34 13 -67 15
l-60 3 -3 123 -3 122 -108 0 -108 0 -5 -82z"/>
<path d="M4625 3017 c-132 -35 -195 -114 -195 -246 l0 -51 109 0 108 0 6 42
c7 52 38 82 76 73 41 -10 52 -33 49 -99 l-3 -58 -92 -23 c-162 -41 -226 -84
-258 -174 -20 -57 -20 -195 0 -252 26 -73 63 -103 142 -118 65 -13 139 2 191
39 l43 30 10 -30 11 -30 129 0 129 0 0 99 c0 91 -2 100 -20 106 -11 3 -22 16
-25 28 -3 12 -6 133 -7 268 l-3 246 -30 49 c-45 72 -112 104 -230 109 -56 3
-109 0 -140 -8z m164 -559 c-1 -40 -4 -84 -8 -97 -10 -35 -54 -65 -84 -57 -54
13 -57 125 -5 173 23 22 76 53 91 53 4 0 7 -33 6 -72z"/>
<path d="M3322 3009 c-18 -6 -51 -28 -72 -49 l-40 -40 0 35 0 35 -124 0 c-68
0 -131 -3 -140 -6 -13 -5 -16 -24 -16 -108 0 -89 2 -104 20 -119 19 -16 20
-29 20 -427 l0 -411 -25 -23 c-23 -22 -25 -30 -25 -120 0 -53 3 -96 8 -96 4 1
81 11 172 23 l165 23 3 96 c3 94 2 97 -20 100 -17 2 -24 11 -28 38 -8 49 3
149 14 131 15 -23 89 -51 136 -51 123 0 195 84 220 257 18 122 8 481 -15 556
-39 127 -139 189 -253 156z m2 -245 c25 -25 27 -48 24 -263 -3 -199 -3 -203
-27 -222 -30 -24 -56 -24 -81 1 -19 19 -20 33 -20 230 0 239 7 270 60 270 16
0 36 -7 44 -16z"/>
<path d="M4035 3004 c-16 -9 -42 -29 -57 -46 l-27 -31 -6 37 -7 36 -134 0
-134 0 0 -100 c0 -89 2 -100 20 -110 19 -10 20 -21 20 -411 0 -392 0 -401 -20
-406 -18 -5 -20 -14 -20 -110 l0 -104 53 6 c48 5 272 25 290 25 4 0 7 42 7 93
l0 93 -30 11 c-30 11 -30 12 -30 88 l0 76 36 -28 c29 -21 50 -28 99 -31 81 -5
125 10 169 58 41 46 63 111 78 235 12 104 5 345 -12 425 -21 95 -65 167 -122
196 -36 18 -135 17 -173 -2z m45 -249 c12 -23 15 -70 15 -210 0 -154 -3 -185
-17 -207 -32 -49 -88 -44 -108 8 -17 43 -12 369 5 410 13 33 17 35 52 32 31
-2 41 -9 53 -33z"/>
<path d="M5600 2912 c0 -87 2 -99 20 -110 20 -12 20 -21 18 -240 -3 -225 -3
-227 -25 -237 -22 -9 -23 -16 -23 -107 0 -55 4 -100 10 -103 6 -4 85 -9 175
-12 l165 -6 0 104 c0 99 -1 105 -22 114 l-23 10 -3 343 -2 342 -145 0 -145 0
0 -98z"/>
<path d="M2618 2973 l-58 -4 0 -108 c0 -84 3 -111 15 -121 13 -11 15 -56 15
-297 0 -276 -1 -285 -20 -290 -18 -5 -20 -14 -20 -114 0 -129 -21 -120 190
-84 80 14 146 25 148 25 1 0 2 47 2 104 0 101 -1 105 -22 108 l-23 3 -3 393
-2 392 -83 -2 c-45 -1 -108 -3 -139 -5z"/>
<path d="M4349 2014 c-7 -8 -30 -24 -52 -35 -47 -25 -52 -18 103 -152 122
-106 505 -397 521 -397 31 0 475 357 582 467 l48 50 -73 6 c-91 8 -720 8 -845
0 -104 -6 -173 10 -230 53 -38 28 -37 28 -54 8z"/>
<path d="M7001 3331 c-127 -44 -187 -135 -210 -321 -14 -109 -14 -611 -1 -718
21 -162 73 -248 183 -301 150 -73 354 -56 426 35 45 58 56 124 56 349 0 239
-11 293 -72 364 -76 89 -229 106 -305 34 l-28 -27 0 146 c0 160 6 188 45 214
21 14 30 14 54 4 36 -14 51 -53 51 -126 l0 -54 105 -2 c58 -1 113 -2 123 -2
15 -1 17 9 16 90 -2 128 -24 197 -82 255 -34 34 -62 51 -101 63 -73 22 -192
20 -260 -3z m165 -749 c27 -18 34 -56 34 -190 0 -77 -5 -153 -11 -171 -21 -60
-93 -61 -124 -2 -11 23 -15 63 -15 171 0 173 10 200 75 200 17 0 35 -4 41 -8z"/>
<path d="M7580 3258 c0 -40 -7 -225 -16 -411 -9 -186 -14 -341 -11 -343 7 -8
228 -31 231 -25 2 3 7 21 11 38 13 62 73 81 122 39 l28 -24 0 -204 c0 -178 -2
-207 -18 -231 -27 -42 -91 -34 -119 16 -7 12 -15 67 -18 122 l-5 100 -129 3
-129 3 5 -118 c4 -85 11 -133 26 -170 57 -148 176 -230 347 -240 100 -6 155 8
204 53 82 74 106 192 99 501 -6 232 -20 300 -78 380 -39 53 -117 93 -179 93
-46 0 -122 -28 -135 -49 -17 -27 -21 -3 -14 101 3 62 7 121 7 130 1 16 19 18
194 20 l192 3 0 140 0 140 -307 3 -308 2 0 -72z"/>
</g>
</svg>
